<svg xmlns="http://www.w3.org/2000/svg" width="138.667" height="25.925" viewBox="0 0 138.667 25.925">
  <g id="Group_139" data-name="Group 139" transform="translate(-815.122 -450.982)">
    <path id="Path_620" data-name="Path 620" d="M914.229,492.683a3.359,3.359,0,0,1-.862,2.371,3.052,3.052,0,0,1-2.339.922,3.094,3.094,0,0,1-2.353-.923,3.331,3.331,0,0,1-.875-2.37v-8.315h-2.57v8.315a6.136,6.136,0,0,0,.444,2.377,5.394,5.394,0,0,0,1.227,1.82,5.55,5.55,0,0,0,1.845,1.172,6.387,6.387,0,0,0,4.538,0,5.56,5.56,0,0,0,1.845-1.172,5.4,5.4,0,0,0,1.227-1.82,6.139,6.139,0,0,0,.444-2.377v-8.315h-2.57Z" transform="translate(-73.47 -27.222)" fill="#004596"/>
    <path id="Path_621" data-name="Path 621" d="M985.389,482.87a5.388,5.388,0,0,0-2.11,1.065,5.308,5.308,0,0,0-1.444,1.942,6.655,6.655,0,0,0-.53,2.733v8.159h2.57v-8.211a3.315,3.315,0,0,1,1.069-2.732,4,4,0,0,1,2.964-.692l.193.018v-2.411l-.156-.018a6.958,6.958,0,0,0-2.556.148" transform="translate(-135.499 -25.835)" fill="#004596"/>
    <path id="Path_622" data-name="Path 622" d="M1029.248,491.67a4.588,4.588,0,0,1-2.338,2.539,3.983,3.983,0,0,1-3.37,0,4.493,4.493,0,0,1-1.381-1.017,4.75,4.75,0,0,1-.93-1.522,5.165,5.165,0,0,1-.34-1.867,5.346,5.346,0,0,1,.341-1.907,4.882,4.882,0,0,1,.931-1.548,4.586,4.586,0,0,1,1.382-1.043,3.859,3.859,0,0,1,3.366,0,4.69,4.69,0,0,1,2.339,2.591,5.351,5.351,0,0,1,.341,1.907,5.172,5.172,0,0,1-.34,1.867m.92-7a6.844,6.844,0,0,0-2.2-1.566,6.616,6.616,0,0,0-2.747-.577,6.523,6.523,0,0,0-2.734.577,7.035,7.035,0,0,0-2.194,1.565,7.345,7.345,0,0,0-1.47,2.311,7.48,7.48,0,0,0-.534,2.818,7.25,7.25,0,0,0,2.005,5.065,6.944,6.944,0,0,0,2.194,1.539,6.651,6.651,0,0,0,2.733.563,6.744,6.744,0,0,0,4.941-2.1,7.383,7.383,0,0,0,1.457-2.271,7.287,7.287,0,0,0,.535-2.793,7.514,7.514,0,0,0-1.991-5.129" transform="translate(-165.658 -25.724)" fill="#004596"/>
    <path id="Path_623" data-name="Path 623" d="M1114.778,491.618a5.217,5.217,0,0,1-.921,1.552,4.172,4.172,0,0,1-1.364,1.039,3.98,3.98,0,0,1-3.37,0,4.458,4.458,0,0,1-1.393-1.042,5.135,5.135,0,0,1-.958-1.551,5.062,5.062,0,0,1-.352-1.891,5.041,5.041,0,0,1,1.31-3.4,4.562,4.562,0,0,1,1.394-1.03,3.98,3.98,0,0,1,3.37,0,4.259,4.259,0,0,1,1.365,1.027,5.051,5.051,0,0,1,.92,1.538,5.162,5.162,0,0,1,.34,1.867,5.232,5.232,0,0,1-.34,1.893m2.389-4.671a7.452,7.452,0,0,0-1.43-2.3,6.53,6.53,0,0,0-2.185-1.555,6.743,6.743,0,0,0-2.745-.563,5.4,5.4,0,0,0-2.8.755,6.567,6.567,0,0,0-1.664,1.38v-1.8h-2.492v19.761h2.57v-7.686a6.475,6.475,0,0,0,1.653,1.324,5.439,5.439,0,0,0,2.735.7,6.747,6.747,0,0,0,2.745-.563,6.53,6.53,0,0,0,2.185-1.555,7.407,7.407,0,0,0,1.43-2.311,7.647,7.647,0,0,0,.521-2.817,7.479,7.479,0,0,0-.521-2.778" transform="translate(-235.416 -25.724)" fill="#004596"/>
    <path id="Path_624" data-name="Path 624" d="M1195.45,491.507a4.881,4.881,0,0,1-.957,1.494,4.656,4.656,0,0,1-1.395,1.015,3.9,3.9,0,0,1-1.685.373,3.983,3.983,0,0,1-1.7-.373,4.3,4.3,0,0,1-1.379-1.012,4.944,4.944,0,0,1-1.259-3.329,5.141,5.141,0,0,1,.34-1.862,5.03,5.03,0,0,1,.919-1.533,4.22,4.22,0,0,1,1.377-1.024,3.984,3.984,0,0,1,1.7-.374,3.9,3.9,0,0,1,1.685.373,4.56,4.56,0,0,1,1.394,1.027,5.018,5.018,0,0,1,1.31,3.392,4.786,4.786,0,0,1-.352,1.832m.43-6.978a6.579,6.579,0,0,0-1.664-1.382,5.392,5.392,0,0,0-2.8-.757,6.572,6.572,0,0,0-2.76.578,6.978,6.978,0,0,0-2.181,1.555,7.141,7.141,0,0,0-1.444,2.3,7.678,7.678,0,0,0-.521,2.822,7.572,7.572,0,0,0,.521,2.809,7.337,7.337,0,0,0,1.443,2.3,6.627,6.627,0,0,0,4.942,2.121,5.4,5.4,0,0,0,2.8-.756,6.408,6.408,0,0,0,1.664-1.4v1.816h2.492V482.73h-2.492Z" transform="translate(-301.181 -25.609)" fill="#004596"/>
    <path id="Path_625" data-name="Path 625" d="M1279.022,542.955a1.641,1.641,0,1,0,1.642,1.641,1.641,1.641,0,0,0-1.642-1.641" transform="translate(-376.907 -74.991)" fill="#00b559"/>
    <path id="Path_626" data-name="Path 626" d="M1347.728,491.67a4.587,4.587,0,0,1-2.337,2.539,3.982,3.982,0,0,1-3.37,0,4.5,4.5,0,0,1-1.381-1.017,4.751,4.751,0,0,1-.93-1.522,5.162,5.162,0,0,1-.34-1.867,5.343,5.343,0,0,1,.341-1.907,4.887,4.887,0,0,1,.931-1.548,4.588,4.588,0,0,1,1.382-1.043,3.859,3.859,0,0,1,3.366,0,4.69,4.69,0,0,1,2.339,2.591,5.351,5.351,0,0,1,.34,1.907,5.165,5.165,0,0,1-.34,1.867m.92-7a6.841,6.841,0,0,0-2.2-1.566,6.614,6.614,0,0,0-2.746-.577,6.521,6.521,0,0,0-2.734.577,7.034,7.034,0,0,0-2.194,1.565,7.345,7.345,0,0,0-1.47,2.311,7.48,7.48,0,0,0-.535,2.818,7.253,7.253,0,0,0,2.005,5.065,6.941,6.941,0,0,0,2.194,1.539,6.651,6.651,0,0,0,2.733.563,6.745,6.745,0,0,0,4.941-2.1,7.385,7.385,0,0,0,1.456-2.271,7.284,7.284,0,0,0,.535-2.793,7.512,7.512,0,0,0-1.991-5.129" transform="translate(-425.333 -25.724)" fill="#00b559"/>
    <path id="Path_627" data-name="Path 627" d="M1433.26,467.415a4.943,4.943,0,0,1-.919,1.495,4.346,4.346,0,0,1-1.367,1.013,3.993,3.993,0,0,1-3.37,0,4.655,4.655,0,0,1-1.4-1.015,4.868,4.868,0,0,1-.957-1.494,4.773,4.773,0,0,1-.352-1.832,5.017,5.017,0,0,1,1.31-3.393,4.559,4.559,0,0,1,1.394-1.027,3.99,3.99,0,0,1,3.37,0,4.258,4.258,0,0,1,1.365,1.024,5.035,5.035,0,0,1,.92,1.533,5.144,5.144,0,0,1,.34,1.862,4.933,4.933,0,0,1-.34,1.834m.959-6.971a6.688,6.688,0,0,0-2.183-1.57,6.606,6.606,0,0,0-2.747-.578,5.359,5.359,0,0,0-2.737.717,6.653,6.653,0,0,0-1.652,1.338V452.84h-2.57v19.608h2.492v-1.816a6.4,6.4,0,0,0,1.664,1.4,5.392,5.392,0,0,0,2.8.757,6.738,6.738,0,0,0,2.745-.564,6.53,6.53,0,0,0,2.184-1.558,7.452,7.452,0,0,0,1.951-5.085,7.678,7.678,0,0,0-.521-2.822,7.422,7.422,0,0,0-1.43-2.315" transform="translate(-495.094 -1.515)" fill="#00b559"/>
    <path id="Path_628" data-name="Path 628" d="M1513.213,490.482a3.418,3.418,0,0,0-1.237-1.21,6.6,6.6,0,0,0-1.769-.684c-.65-.156-1.361-.3-2.113-.42-.654-.1-1.2-.208-1.63-.31a4.834,4.834,0,0,1-1.006-.338,1.166,1.166,0,0,1-.477-.38.959.959,0,0,1-.129-.519,1.4,1.4,0,0,1,.779-1.182,4.4,4.4,0,0,1,4.13-.011,2.219,2.219,0,0,1,1.028,1.517l.03.139h2.582l-.021-.195a4.446,4.446,0,0,0-1.738-3.213,6.332,6.332,0,0,0-3.915-1.145,7.224,7.224,0,0,0-2.407.362,5.177,5.177,0,0,0-1.7.96,3.9,3.9,0,0,0-1.01,1.339,3.692,3.692,0,0,0-.328,1.506,3.4,3.4,0,0,0,.388,1.677,3.209,3.209,0,0,0,1.1,1.146,5.89,5.89,0,0,0,1.694.7,21.876,21.876,0,0,0,2.213.435,12.339,12.339,0,0,1,1.927.372,3.959,3.959,0,0,1,1.06.459,1.019,1.019,0,0,1,.416.484,1.892,1.892,0,0,1,.1.6,1.7,1.7,0,0,1-.827,1.4,3.976,3.976,0,0,1-2.361.618,4.34,4.34,0,0,1-2.408-.65,2.508,2.508,0,0,1-1.174-1.735l-.026-.146h-2.591l.024.2a5.053,5.053,0,0,0,1.972,3.484,5.821,5.821,0,0,0,1.883.942,8.081,8.081,0,0,0,2.321.321,7.723,7.723,0,0,0,2.269-.321,5.682,5.682,0,0,0,1.8-.9,4.107,4.107,0,0,0,1.185-1.43,4.217,4.217,0,0,0,.423-1.9,3.777,3.777,0,0,0-.456-1.956" transform="translate(-559.88 -25.724)" fill="#00b559"/>
    <path id="Path_629" data-name="Path 629" d="M1304.5,499.8a1.976,1.976,0,0,1-.413,1.409,1.731,1.731,0,0,1-1.3.319l-.192-.016v2.521l.164.012c.166.012.328.018.483.018a4.348,4.348,0,0,0,1.453-.223,3.183,3.183,0,0,0,1.339-.884,3.743,3.743,0,0,0,.767-1.4,5.956,5.956,0,0,0,.242-1.734V484.368H1304.5Z" transform="translate(-397.47 -27.222)" fill="#00b559"/>
    <path id="Path_630" data-name="Path 630" d="M1312.553,450.982a1.642,1.642,0,1,0,1.642,1.642,1.642,1.642,0,0,0-1.642-1.642" transform="translate(-404.247 0)" fill="#00b559"/>
    <path id="Path_631" data-name="Path 631" d="M818.4,489.863a5.043,5.043,0,0,1,.361-1.9,4.743,4.743,0,0,1,2.452-2.583,4.328,4.328,0,0,1,3.569,0,5.036,5.036,0,0,1,1.333.9l-7.443,5.211a4.911,4.911,0,0,1-.273-1.631m8.951,1.631q-.041.116-.087.23a4.587,4.587,0,0,1-1,1.516,4.945,4.945,0,0,1-1.479,1.015,4.468,4.468,0,0,1-3.574,0,4.771,4.771,0,0,1-1.308-.868l7.436-5.206h0l2.146-1.5a7.366,7.366,0,0,0-1.334-1.914,7.118,7.118,0,0,0-5.139-2.14,7.021,7.021,0,0,0-2.843.576,7.228,7.228,0,0,0-3.81,3.871,7.207,7.207,0,0,0-.556,2.814,7.017,7.017,0,0,0,.556,2.789q.073.169.153.333l-1.388.973v2.754l2.682-1.878c.028.029.054.059.083.087a7.376,7.376,0,0,0,7.978,1.537,7.037,7.037,0,0,0,2.283-1.538,7.345,7.345,0,0,0,1.515-2.268,6.744,6.744,0,0,0,.379-1.18Z" transform="translate(0 -25.8)" fill="#004596"/>
  </g>
</svg>
