<svg xmlns="http://www.w3.org/2000/svg" width="32.912" height="25.966" viewBox="0 0 32.912 25.966">
  <g id="Group_1" data-name="Group 1" transform="translate(-945.277 -301.864)">
    <path id="Path_127" data-name="Path 127" d="M1386.423,624.224a2.956,2.956,0,1,0,2.956,2.956,2.956,2.956,0,0,0-2.956-2.956" transform="translate(-411.19 -302.305)" fill="#00b559"/>
    <path id="Path_128" data-name="Path 128" d="M951.176,314.9a9.086,9.086,0,0,1,.65-3.423,8.544,8.544,0,0,1,4.417-4.651,7.794,7.794,0,0,1,6.427,0,9.071,9.071,0,0,1,2.4,1.627l-13.4,9.384a8.83,8.83,0,0,1-.492-2.936m16.119,2.937q-.073.209-.157.415a8.259,8.259,0,0,1-1.8,2.73,8.9,8.9,0,0,1-2.664,1.828,8.045,8.045,0,0,1-6.435,0,8.594,8.594,0,0,1-2.355-1.563l13.39-9.375h0l3.864-2.705a13.26,13.26,0,0,0-2.4-3.447,12.818,12.818,0,0,0-9.253-3.853,12.643,12.643,0,0,0-5.12,1.037,13.017,13.017,0,0,0-6.861,6.97,12.98,12.98,0,0,0-1,5.067,12.639,12.639,0,0,0,1,5.022q.131.3.275.6l-2.5,1.751v4.96l4.829-3.382c.05.052.1.106.149.157a13.282,13.282,0,0,0,14.366,2.768,12.674,12.674,0,0,0,4.112-2.769,13.23,13.23,0,0,0,2.727-4.083,12.137,12.137,0,0,0,.683-2.125Z" transform="translate(0)" fill="#004596"/>
  </g>
</svg>
